<svg width="24" height="25" viewBox="0 0 24 25" fill="none" xmlns="http://www.w3.org/2000/svg">
<path d="M23.3467 18.1136L19.9975 14.7643C18.8013 13.5681 16.7678 14.0467 16.2893 15.6016C15.9305 16.6782 14.7343 17.2763 13.6578 17.037C11.2654 16.4389 8.03578 13.3289 7.43769 10.817C7.07884 9.74036 7.79654 8.54419 8.87309 8.18538C10.4281 7.70691 10.9066 5.67343 9.71041 4.47726L6.36114 1.12799C5.4042 0.290671 3.9688 0.290671 3.13148 1.12799L0.858765 3.40071C-1.41396 5.79305 1.098 12.1327 6.71999 17.7547C12.342 23.3767 18.6817 26.0083 21.074 23.616L23.3467 21.3432C24.1841 20.3863 24.1841 18.9509 23.3467 18.1136Z" fill="#BD8A09"/>
</svg>
