<svg width="24" height="25" viewBox="0 0 24 25" fill="none" xmlns="http://www.w3.org/2000/svg">
<g clip-path="url(#clip0_566_1139)">
<path d="M9.89044 7.76553C4.46264 7.76553 4.93638e-05 11.498 4.93638e-05 16.0861C4.93638e-05 17.9201 0.711424 19.784 2.016 21.2286L0.173768 23.3338C-0.00749751 23.5412 -0.0514663 23.8358 0.0632369 24.0871C0.177237 24.3384 0.427174 24.4998 0.703174 24.4998H10.5936C14.6011 24.4998 19.7808 21.0488 19.7808 16.0861C19.7808 11.498 15.3182 7.76553 9.89044 7.76553ZM5.62491 17.3749C4.84969 17.3749 4.21871 16.7439 4.21871 15.9687C4.21871 15.1935 4.84974 14.5625 5.62491 14.5625C6.40008 14.5625 7.03111 15.1935 7.03111 15.9687C7.03116 16.7439 6.40013 17.3749 5.62491 17.3749ZM9.89044 17.3749C9.11522 17.3749 8.48424 16.7439 8.48424 15.9687C8.48424 15.1935 9.11527 14.5625 9.89044 14.5625C10.6656 14.5625 11.2966 15.1935 11.2966 15.9687C11.2966 16.7439 10.6657 17.3749 9.89044 17.3749ZM14.156 17.3749C13.3808 17.3749 12.7498 16.7439 12.7498 15.9687C12.7498 15.1935 13.3808 14.5625 14.156 14.5625C14.9311 14.5625 15.5622 15.1935 15.5622 15.9687C15.5622 16.7439 14.9312 17.3749 14.156 17.3749Z" fill="#BD8A09"/>
<path d="M23.8299 14.8076L22.1745 12.8761C23.3561 11.5427 23.9995 9.91667 23.9995 8.23447C23.9995 3.96983 19.899 0.500282 14.8591 0.500282C10.3017 0.500282 6.42977 3.34039 5.74609 7.037C7.01772 6.60491 8.4438 6.35928 9.8905 6.35928C16.0477 6.35928 21.1063 10.6598 21.1803 15.9687H23.2964C23.897 15.9687 24.2196 15.2615 23.8299 14.8076Z" fill="#BD8A09"/>
</g>
<defs>
<clipPath id="clip0_566_1139">
<rect width="24" height="24" fill="white" transform="translate(0 0.5)"/>
</clipPath>
</defs>
</svg>
