<svg width="48" height="48" viewBox="0 0 48 48" fill="none" xmlns="http://www.w3.org/2000/svg">
<g clip-path="url(#clip0_902_548)">
<path d="M47.5 24C47.5 34.4966 40.6226 43.3783 31.1281 46.3983V29.8063H35.8031H36.2426L36.299 29.3705L37.0771 23.3611L37.1502 22.7969H36.5813H31.1281V19.4719C31.1281 18.627 31.253 18.0551 31.5644 17.6863C31.86 17.3363 32.4246 17.0563 33.6 17.0563H36.75H37.25V16.5563V11.1938V10.758L36.8183 10.6984C36.2469 10.6196 34.339 10.4594 32.1281 10.4594C29.7391 10.4594 27.6755 11.1905 26.2078 12.6417C24.7386 14.0944 23.9219 16.2139 23.9219 18.8812V22.8063H19.2656H18.7656V23.3063V29.3156V29.8156H19.2656H23.9219V47.4999C10.9777 47.4578 0.5 36.9541 0.5 24C0.5 11.0199 11.0199 0.5 24 0.5C36.9801 0.5 47.5 11.0199 47.5 24Z" stroke="#1E1E1E"/>
</g>
<defs>
<clipPath id="clip0_902_548">
<rect width="48" height="48" fill="white"/>
</clipPath>
</defs>
</svg>
