<svg width="16" height="16" viewBox="0 0 16 16" fill="none" xmlns="http://www.w3.org/2000/svg">
<path d="M15.7996 7.81263C16.0896 7.49364 16.0616 7.00473 15.737 6.7209L8.58642 0.464081C8.26186 0.180249 7.7415 0.186194 7.42377 0.477485L0.248846 7.05449C-0.0688876 7.34578 -0.0844821 7.83406 0.214319 8.14465L0.394204 8.332C0.69264 8.64258 1.17503 8.67962 1.47096 8.41445L2.00718 7.93426V14.9644C2.00718 15.3958 2.35667 15.745 2.78769 15.745H5.58449C6.01551 15.745 6.365 15.3958 6.365 14.9644V10.0462H9.93236V14.9644C9.92615 15.3955 10.2345 15.7446 10.6656 15.7446H13.6295C14.0605 15.7446 14.41 15.3955 14.41 14.9641V8.03325C14.41 8.03325 14.5581 8.16301 14.7408 8.3236C14.9232 8.48387 15.3063 8.35536 15.5963 8.03606L15.7996 7.81263Z" fill="#BD8A09"/>
</svg>
