<svg width="48" height="48" viewBox="0 0 48 48" fill="none" xmlns="http://www.w3.org/2000/svg">
<g clip-path="url(#clip0_400_56)">
<path fill-rule="evenodd" clip-rule="evenodd" d="M-0.000854492 24C-0.000854492 37.255 10.7446 48.0004 23.9996 48.0004C37.2483 47.9854 47.985 37.2487 48.0001 24C48.0001 10.745 37.2546 -0.000488281 23.9996 -0.000488281C10.7446 -0.000488281 -0.000854492 10.745 -0.000854492 24ZM1.09071 24C1.09071 36.6521 11.3475 46.9089 23.9996 46.9089C36.6458 46.8945 46.8941 36.6461 46.9085 24C46.9085 11.3478 36.6517 1.09108 23.9996 1.09108C11.3475 1.09108 1.09071 11.3478 1.09071 24Z" fill="black"/>
<path d="M32.7768 11.8469H15.2223C13.3587 11.8492 11.8487 13.3591 11.8464 15.2228V32.7773C11.8487 34.6409 13.3587 36.1508 15.2223 36.1531H32.7768C34.6404 36.1508 36.1504 34.6409 36.1527 32.7773V15.2228C36.1504 13.3591 34.6404 11.8492 32.7768 11.8469ZM34.8023 32.7773C34.8023 33.8959 33.8954 34.8028 32.7768 34.8028H15.2223C14.1037 34.8028 13.1968 33.8959 13.1968 32.7773V15.2228C13.1968 14.1042 14.1037 13.1973 15.2223 13.1973H32.7768C33.8954 13.1973 34.8023 14.1042 34.8023 15.2228V32.7773Z" fill="black"/>
<path d="M23.9999 17.2483C20.271 17.2483 17.2482 20.2711 17.2482 24C17.2482 27.729 20.271 30.7517 23.9999 30.7517C27.7288 30.7517 30.7516 27.729 30.7516 24C30.7477 20.2727 27.7272 17.2522 23.9999 17.2483ZM23.9999 29.4014C21.0167 29.4014 18.5985 26.9832 18.5985 24C18.5985 21.0168 21.0167 18.5986 23.9999 18.5986C26.9831 18.5986 29.4013 21.0168 29.4013 24C29.398 26.9816 26.9815 29.3981 23.9999 29.4014Z" fill="black"/>
<path d="M31.4271 14.5476C30.3085 14.5476 29.4016 15.4545 29.4016 16.5731C29.4016 17.6917 30.3085 18.5986 31.4271 18.5986C32.5457 18.5986 33.4526 17.6917 33.4526 16.5731C33.4526 15.4545 32.5457 14.5476 31.4271 14.5476ZM31.4271 17.2483C31.0543 17.2483 30.752 16.946 30.752 16.5731C30.752 16.2003 31.0543 15.898 31.4271 15.898C31.8 15.898 32.1023 16.2003 32.1023 16.5731C32.1023 16.946 31.8 17.2483 31.4271 17.2483Z" fill="black"/>
</g>
<defs>
<clipPath id="clip0_400_56">
<rect width="48" height="48" fill="white"/>
</clipPath>
</defs>
</svg>
