<svg width="52" height="52" viewBox="0 0 52 52" fill="none" xmlns="http://www.w3.org/2000/svg">
<path d="M31.8749 3.45548C18.8607 16.5702 18.8544 16.2454 17.8107 17.8259C16.1181 18.975 16.6007 18.8361 3.45624 31.8746C-1.15064 36.4814 -1.15222 43.9354 3.45624 48.5438C8.05093 53.1392 15.5297 53.1401 20.1251 48.5438C33.0681 35.4977 33.1432 35.7602 34.1915 34.17C35.864 33.0396 35.2959 33.269 48.5446 20.1247C53.1506 15.5179 53.1531 8.06483 48.5446 3.45548C43.9492 -1.14012 36.47 -1.13854 31.8749 3.45548ZM16.5353 28.636C17.1158 30.1813 18.0234 31.599 19.2117 32.7877C20.3937 33.9693 21.8127 34.8755 23.3666 35.4611L15.2047 43.6233C13.3215 45.5055 10.258 45.5051 8.37659 43.6233C6.49253 41.7392 6.49185 38.6799 8.37659 36.7951L16.5353 28.636ZM18.976 47.395C15.0144 51.3566 8.56762 51.3566 4.60485 47.395C0.632842 43.4221 0.631715 36.9972 4.60485 33.0234L16.1406 21.4878C15.7119 22.9991 15.6161 25.0834 16.0137 26.8599L7.22775 35.6463C4.7086 38.1646 4.70769 42.2527 7.22775 44.7721C9.74285 47.2881 13.8373 47.2883 16.3535 44.7721L29.0163 32.1093C29.6392 31.4864 30.1135 30.7733 30.4229 29.9979C30.4234 29.9968 30.4238 29.9959 30.4245 29.9948C30.4259 29.9912 30.4279 29.9878 30.4292 29.9842C31.3715 27.6761 30.9254 24.8915 29.0163 22.9831C27.6886 21.655 25.8778 21.0086 24.0596 21.1191C24.3424 20.8232 26.1616 19.0118 27.3454 17.8257C28.9656 18.3101 30.4471 19.1683 31.639 20.3602C35.0494 23.7695 35.6002 29.1617 32.9234 33.1538C32.0341 34.5538 32.0336 34.2458 18.976 47.395ZM22.9755 22.9648C24.7033 22.4177 26.5865 22.8494 27.8677 24.1319C29.079 25.3433 29.6331 27.1597 29.0249 29.0343C27.3 29.58 25.4151 29.1493 24.1325 27.8671C22.9232 26.6581 22.3659 24.8435 22.9755 22.9648ZM35.4646 23.3633C34.8848 21.818 33.977 20.4003 32.788 19.2116C31.6101 18.0332 30.1922 17.1252 28.6379 16.5337L36.7955 8.37606C38.6782 6.49425 41.7397 6.49267 43.624 8.37606C45.5083 10.2604 45.5088 13.3194 43.624 15.2042L35.4646 23.3633ZM47.3958 18.9759L35.8591 30.5121C36.3399 28.6538 36.3521 26.8304 35.982 25.1434L44.7729 16.353C47.292 13.8348 47.2929 9.7466 44.7729 7.22722C42.2562 4.71099 38.1633 4.70941 35.6466 7.22722L22.9834 19.8904C20.476 22.3994 20.4532 26.4869 22.9834 29.0162C24.2446 30.2774 26.0062 31.0002 27.9367 30.884C27.6561 31.1768 25.6737 33.1522 24.6618 34.1662C23.0416 33.6912 21.5572 32.8358 20.3605 31.6391C19.0482 30.3265 18.1287 28.6953 17.6939 26.8994C16.9392 24.0916 17.5854 21.0224 19.0714 18.8559C20.259 17.1243 19.3497 18.4033 33.0235 4.60432C36.9849 0.643809 43.4325 0.642231 47.3955 4.60432C51.3594 8.57047 51.375 14.994 47.3958 18.9759Z" fill="#BD8A09"/>
<path d="M14.3787 14.3778C14.696 14.0605 14.696 13.5463 14.3787 13.229L9.02416 7.87495C8.70684 7.55763 8.19264 7.55763 7.87532 7.87495C7.558 8.19227 7.558 8.70648 7.87532 9.0238L13.2298 14.3778C13.5471 14.6952 14.0611 14.6952 14.3787 14.3778Z" fill="#BD8A09"/>
<path d="M4.05918 16.3902C3.6106 16.3902 3.24683 16.754 3.24683 17.2026C3.24683 17.6512 3.6106 18.0149 4.05918 18.0149H11.6311C12.0797 18.0149 12.4434 17.6512 12.4434 17.2026C12.4434 16.754 12.0797 16.3902 11.6311 16.3902H4.05918Z" fill="#BD8A09"/>
<path d="M16.3906 4.05833V11.6302C16.3906 12.0788 16.754 12.4426 17.203 12.4426C17.652 12.4426 18.0153 12.0788 18.0153 11.6302V4.05833C18.0153 3.60975 17.652 3.24597 17.203 3.24597C16.754 3.24597 16.3906 3.60975 16.3906 4.05833Z" fill="#BD8A09"/>
<path d="M37.622 37.6215C37.3047 37.9388 37.3047 38.453 37.622 38.7703L42.9765 44.1244C43.2938 44.4417 43.808 44.4417 44.1254 44.1244C44.4427 43.807 44.4427 43.2928 44.1254 42.9755L38.7709 37.6215C38.4535 37.3042 37.9393 37.3042 37.622 37.6215Z" fill="#BD8A09"/>
<path d="M47.9414 35.6091C48.3904 35.6091 48.7537 35.2453 48.7537 34.7968C48.7537 34.3482 48.3904 33.9844 47.9414 33.9844H40.3695C39.9205 33.9844 39.5571 34.3482 39.5571 34.7968C39.5571 35.2453 39.9205 35.6091 40.3695 35.6091H47.9414Z" fill="#BD8A09"/>
<path d="M35.6092 47.941V40.3691C35.6092 39.9205 35.2459 39.5568 34.7969 39.5568C34.3478 39.5568 33.9845 39.9205 33.9845 40.3691V47.941C33.9845 48.3896 34.3478 48.7534 34.7969 48.7534C35.2459 48.7534 35.6092 48.3896 35.6092 47.941Z" fill="#BD8A09"/>
</svg>
