<svg width="52" height="52" viewBox="0 0 52 52" fill="none" xmlns="http://www.w3.org/2000/svg">
<path d="M12.1845 19.0892C12.4968 19.0005 12.8326 19.0869 13.0633 19.3154L17.3333 23.582C16.701 24.6883 16.1453 25.8368 15.6702 27.0192C15.2995 26.867 14.9027 26.7887 14.5019 26.7887C13.6659 26.7871 12.865 27.1242 12.2815 27.7229C11.5631 28.4584 11.2431 29.495 11.4218 30.5075C9.01514 30.6664 6.7511 31.7054 5.06134 33.4265C1.42134 37.1401 1.66834 40.8859 3.25348 45.7271C4.00574 48.0229 0.566809 49.5326 0.530409 49.5465C0.187849 49.6919 -0.0235909 50.0399 0.0050732 50.4109C0.0337373 50.782 0.296105 51.0933 0.656943 51.1845C2.74412 51.7195 4.88963 51.9934 7.04428 52C11.9617 52 16.3731 50.492 19.1308 47.6927C20.8272 45.9524 21.8421 43.6608 21.9908 41.2351C22.1624 41.2671 22.3363 41.2845 22.5108 41.2871C23.3473 41.2885 24.1488 40.9516 24.7329 40.3529C25.6198 39.4415 25.8852 38.0925 25.4098 36.9131C26.6138 36.4132 27.7799 35.8267 28.899 35.1581L32.6768 38.9367C32.9099 39.1694 32.9967 39.5111 32.903 39.8268C32.0211 43.1884 32.9868 46.7656 35.4406 49.2267C37.2066 51.0099 39.6129 52.0121 42.1226 52.0095C43.3792 52.0062 44.6239 51.7657 45.7912 51.3006C46.0631 51.1935 46.2627 50.9565 46.3221 50.6704C46.3815 50.3843 46.2927 50.0875 46.0859 49.881L41.067 44.8708C40.8633 44.6651 40.7628 44.3787 40.7931 44.0908L41.1147 41.8947C41.1722 41.4885 41.4925 41.1699 41.899 41.1147L44.0752 40.7966C44.3627 40.7615 44.6507 40.8568 44.8604 41.0566L49.8784 46.0833C50.0849 46.2901 50.3817 46.3788 50.6678 46.3195C50.954 46.2601 51.1909 46.0605 51.298 45.7886C52.7623 42.2376 51.945 38.1543 49.2267 35.4406C46.7611 32.989 43.1812 32.0273 39.819 32.9134C39.506 33.0027 39.1692 32.9151 38.9393 32.6846L35.4207 29.1668C41.4388 22.1355 55.3003 4.97986 51.2044 0.814656C50.6155 0.251574 49.8202 -0.0432292 49.0065 -1.07009e-05C43.3602 -1.07009e-05 29.4805 11.3031 23.1643 16.9121L19.3085 13.0563C19.0839 12.8256 19.0002 12.4922 19.0892 12.1827C19.9823 8.81955 19.0186 5.23523 16.5594 2.77332C13.8489 0.0529233 9.76565 -0.764829 6.21661 0.701989C5.94493 0.809039 5.74542 1.04571 5.68587 1.33158C5.62632 1.61745 5.71474 1.9141 5.92108 2.12072L10.9477 7.15432C11.1479 7.35203 11.241 7.63374 11.1982 7.91179L10.8871 10.1114C10.827 10.511 10.5135 10.8248 10.114 10.8853L7.89881 11.1991C7.62125 11.2368 7.34226 11.1403 7.14741 10.9391L2.12074 5.92106C1.91433 5.71544 1.61842 5.62729 1.33314 5.68644C1.04786 5.74559 0.811384 5.94412 0.703743 6.21486C-0.76327 9.76358 0.0537599 13.8467 2.77334 16.5577C5.23488 19.0187 8.82045 19.9832 12.1845 19.0892ZM20.9378 21.4335L30.9097 31.5735C28.9546 33.2289 26.7373 34.5469 24.349 35.4735L17.1063 28.1069C18.0114 25.6891 19.3046 23.435 20.9352 21.4335H20.9378ZM17.8975 46.4802C14.7654 49.66 9.13641 50.9435 3.16421 49.9469C4.47461 48.8592 5.56748 47.2169 4.90361 45.1923C3.22921 40.079 3.58194 37.4175 6.30241 34.6467C7.88143 33.0406 10.0579 32.1645 12.3093 32.2287L13.1534 33.0876C10.6132 33.7631 8.43664 35.403 7.08674 37.6584C6.90414 37.9159 6.87602 38.2524 7.01333 38.5366C7.15063 38.8209 7.43165 39.008 7.74688 39.0251C8.06212 39.0421 8.36169 38.8864 8.52888 38.6187C10.7822 35.2387 13.3597 34.6779 14.6657 34.6242L15.4076 35.3791L10.6617 40.1258C10.4364 40.3434 10.3461 40.6656 10.4254 40.9686C10.5047 41.2716 10.7414 41.5083 11.0444 41.5876C11.3474 41.6669 11.6696 41.5766 11.8872 41.3513L16.6235 36.6149L17.4989 37.5059C17.4217 39.5859 16.5126 43.0447 11.7893 45.1464C11.4227 45.3153 11.2212 45.7149 11.3035 46.1101C11.3857 46.5052 11.7298 46.7913 12.1333 46.8C12.2543 46.8002 12.3739 46.7748 12.4843 46.7255C17.043 44.6966 18.5874 41.5454 19.0502 39.0867L20.28 40.3338C20.3533 42.6208 19.4922 44.8391 17.8949 46.4776L17.8975 46.4802ZM23.5075 39.1413C23.2482 39.4072 22.8926 39.5572 22.5212 39.5573C22.1503 39.5572 21.7952 39.4072 21.5367 39.1413L13.5174 30.9868C12.962 30.4178 12.962 29.5096 13.5174 28.9406C13.776 28.6747 14.1311 28.5247 14.5019 28.5246C14.8734 28.5243 15.2292 28.6744 15.4882 28.9406L23.5049 37.0933C24.0579 37.663 24.0579 38.569 23.5049 39.1387L23.5075 39.1413ZM37.7139 33.9127C38.3828 34.5821 39.36 34.8403 40.2723 34.5887C43.0352 33.8618 45.9763 34.6533 48.0012 36.6687C49.8845 38.542 50.6728 41.2517 50.0881 43.8429L46.0824 39.8303C45.4888 39.2534 44.665 38.9779 43.8438 39.0815L41.6537 39.4013C40.4816 39.5607 39.5598 40.4825 39.4004 41.6546L39.0763 43.8533C38.9778 44.6736 39.2571 45.4942 39.8355 46.0841L43.8403 50.0821C41.2492 50.6665 38.5395 49.8783 36.6661 47.9951C34.6541 45.9726 33.8628 43.0362 34.5861 40.2766C34.8392 39.3615 34.5822 38.381 33.9127 37.7078L30.3923 34.1874C31.2395 33.594 32.0327 32.927 32.7626 32.1941C32.7999 32.1568 33.3693 31.5259 34.2853 30.4763L37.7139 33.9127ZM49.9685 2.03059C52.8034 4.91399 38.2373 23.8706 32.1343 30.3481L22.1416 20.1873C26.7947 15.7222 43.4564 1.73332 49.0065 1.73332C49.3541 1.69917 49.7008 1.8063 49.9685 2.03059ZM1.91448 8.16486L5.91501 12.1593C6.49776 12.7552 7.33088 13.0356 8.15534 12.9133L10.3584 12.6013C11.5186 12.4289 12.4294 11.5178 12.6013 10.3575L12.9133 8.16919C13.0426 7.34384 12.7653 6.50687 12.1689 5.92192L8.16488 1.91446C10.7551 1.32847 13.4645 2.11775 15.3348 4.00312C17.3555 6.02673 18.1477 8.97216 17.4148 11.7364C17.1647 12.6467 17.4225 13.6211 18.0899 14.2887L21.8747 18.0735C21.1692 18.7191 20.6232 19.2374 20.2973 19.5693C19.5485 20.3416 18.8709 21.1799 18.2728 22.074L14.2948 18.0951C13.6262 17.4257 12.6501 17.1661 11.7373 17.4148C8.97224 18.1476 6.0261 17.3554 4.00141 15.3348C2.11812 13.4633 1.32975 10.7547 1.91448 8.16486Z" fill="#BD8A09"/>
</svg>
