<svg width="52" height="52" viewBox="0 0 52 52" fill="none" xmlns="http://www.w3.org/2000/svg">
<path fill-rule="evenodd" clip-rule="evenodd" d="M26.001 15.9838C30.9733 15.9838 35.4754 17.9993 38.7338 21.2586C41.9921 24.517 44.0086 29.0191 44.0086 33.9924C44.0086 38.9657 41.9931 43.4668 38.7338 46.7251C35.4744 49.9834 30.9733 51.999 26.001 51.999C21.0288 51.999 16.5266 49.9834 13.2673 46.7251C10.009 43.4668 7.99344 38.9646 7.99344 33.9924C7.99344 29.0202 10.009 24.518 13.2673 21.2586C16.5266 17.9993 21.0288 15.9838 26.001 15.9838ZM8.84728 6.1256C8.77864 5.90824 8.61016 5.72624 8.37616 5.65136C7.99448 5.52864 7.58576 5.73872 7.46304 6.1204L6.15576 10.1722L1.95 10.1639C1.70768 10.1462 1.4612 10.2513 1.30832 10.4624C1.07224 10.7879 1.14504 11.2424 1.47056 11.4774L4.92024 13.9734L3.59632 18.0211L3.5984 18.0222C3.52976 18.2354 3.55992 18.4777 3.70136 18.6732C3.93744 18.9966 4.38984 19.0684 4.71328 18.8323L8.15464 16.3218L11.5513 18.799C11.7374 18.9571 11.9985 19.0174 12.247 18.9363C12.6287 18.8126 12.8378 18.4018 12.713 18.0211L11.389 13.9734L14.8387 11.4774L14.8377 11.4764C15.0197 11.3443 15.1372 11.1311 15.1372 10.8888C15.1372 10.4884 14.8127 10.1639 14.4123 10.1639L10.1535 10.1722L8.84728 6.1256ZM8.9336 11.1197L8.1536 8.7048L7.3736 11.1197C7.28 11.4119 7.00648 11.623 6.68304 11.623L4.14336 11.6178L6.20048 13.1061C6.44904 13.286 6.56448 13.6115 6.46464 13.9194L5.67528 16.3342L7.71576 14.846C7.96432 14.6578 8.31584 14.6442 8.58104 14.8377L10.633 16.3342L9.85192 13.9464C9.74168 13.6479 9.83736 13.3016 10.1078 13.1061L12.1649 11.6178L9.65952 11.623C9.3392 11.6386 9.03656 11.439 8.9336 11.1197ZM44.5401 6.1256C44.4714 5.90824 44.303 5.72624 44.069 5.65136C43.6873 5.52864 43.2786 5.73872 43.1558 6.1204L41.8486 10.1722L37.6428 10.1639C37.4005 10.1462 37.154 10.2513 37.0011 10.4624C36.765 10.7879 36.8378 11.2424 37.1634 11.4774L40.613 13.9734L39.2891 18.0211L39.2912 18.0222C39.2226 18.2354 39.2527 18.4777 39.3942 18.6732C39.6302 18.9966 40.0826 19.0684 40.4061 18.8323L43.8474 16.3218L47.2441 18.799C47.4302 18.9571 47.6913 19.0174 47.9398 18.9363C48.3215 18.8126 48.5306 18.4018 48.4058 18.0211L47.0818 13.9734L50.5315 11.4774L50.5305 11.4764C50.7125 11.3443 50.83 11.1311 50.83 10.8888C50.83 10.4884 50.5055 10.1639 50.1051 10.1639L45.8463 10.1722L44.5401 6.1256ZM44.6274 11.1197L43.8474 8.7048L43.0674 11.1197C42.9738 11.4119 42.7003 11.623 42.3769 11.623L39.8372 11.6178L41.8943 13.1061C42.1429 13.286 42.2583 13.6115 42.1585 13.9194L41.3691 16.3342L43.4096 14.846C43.6582 14.6578 44.0097 14.6442 44.2749 14.8377L46.3268 16.3342L45.5458 13.9464C45.4355 13.6479 45.5312 13.3016 45.8016 13.1061L47.8587 11.6178L45.3534 11.623C45.032 11.6386 44.7294 11.439 44.6274 11.1197ZM26.6937 0.510638L27.9999 4.55728L32.2587 4.54896C32.6591 4.54896 32.9836 4.87344 32.9836 5.27384C32.9836 5.51512 32.865 5.72936 32.6841 5.86144L32.6851 5.86248L29.2354 8.35848L30.5594 12.4062C30.6831 12.7878 30.4751 13.1976 30.0934 13.3214C29.8449 13.4025 29.5838 13.3411 29.3977 13.1841L26.001 10.7068L22.5597 13.2174C22.2362 13.4534 21.7828 13.3817 21.5478 13.0582C21.4053 12.8627 21.3751 12.6204 21.4448 12.4072L21.4427 12.4062L22.7666 8.35848L19.317 5.86248C18.9914 5.6264 18.9197 5.17192 19.1547 4.84744C19.3076 4.63632 19.5541 4.53128 19.7964 4.54896L24.0022 4.55728L25.3105 0.505438C25.4332 0.123758 25.8419 -0.0863222 26.2236 0.0363978C26.4566 0.111278 26.625 0.293278 26.6937 0.510638ZM26.781 5.50472L26.001 3.08984L25.221 5.50472C25.1274 5.79696 24.8539 6.00808 24.5305 6.00808L21.9918 6.00288L24.049 7.49112C24.2975 7.67104 24.413 7.99656 24.3131 8.3044L23.5238 10.7193L25.5642 9.23104C25.8128 9.0428 26.1643 9.02928 26.4295 9.22272L28.4814 10.7193L27.7004 8.33144C27.5902 8.03296 27.6858 7.68664 27.9562 7.49112L30.0134 6.00288L27.508 6.00808C27.1856 6.02264 26.883 5.824 26.781 5.50472ZM22.0158 31.0211L22.0303 40.4487H31.4995C31.8157 40.4487 32.1048 40.3426 32.3274 40.1606C32.551 39.9776 32.7132 39.7176 32.7766 39.4098L34.1838 32.5572C34.2254 32.3554 34.2233 32.162 34.1786 31.9821C34.1338 31.8022 34.0465 31.6295 33.9154 31.4694C33.7865 31.3102 33.6357 31.1906 33.4693 31.1116C33.3039 31.0326 33.1146 30.993 32.9056 30.993H27.9323C27.5298 30.993 27.2043 30.6675 27.2043 30.265C27.2043 30.16 27.2262 30.0612 27.2667 29.9707L27.4248 29.5214C28.2131 27.2771 28.6312 26.0863 27.535 25.0682C27.4248 24.9652 27.3042 24.8966 27.1794 24.8622C27.0546 24.8279 26.9142 24.8258 26.7654 24.8581C26.6167 24.8903 26.4898 24.9496 26.391 25.0318C26.2912 25.115 26.2101 25.2273 26.1529 25.3666L24.1987 30.0446C23.8056 30.9847 22.8602 31.0513 22.0158 31.0211ZM20.5806 41.0769L20.5639 30.3326C20.4214 29.5672 19.1318 29.3904 19.1318 30.7393V40.7742C19.1318 41.9921 20.255 42.1866 20.5806 41.0769ZM31.4995 41.9047C32.1568 41.9047 32.7642 41.677 33.2436 41.287C33.721 40.897 34.0662 40.3468 34.1994 39.701L35.6065 32.8484C35.6918 32.4324 35.6855 32.0247 35.5898 31.6358C35.4942 31.2478 35.3111 30.8838 35.0428 30.5542C34.7734 30.2234 34.4531 29.9707 34.0902 29.7981C33.7272 29.6254 33.3289 29.537 32.9066 29.537H28.9578C29.8407 27.0015 30.2172 25.5757 28.5251 24.0042C28.2433 23.7422 27.9157 23.5602 27.561 23.4624C27.2064 23.3646 26.833 23.3542 26.4586 23.4354C26.0832 23.5165 25.7483 23.6808 25.4644 23.9169C25.1815 24.1519 24.959 24.4535 24.8102 24.8092L22.8561 29.4871C22.8082 29.6026 22.2851 29.5828 21.8358 29.5599C20.9248 27.5174 17.6748 27.9552 17.6748 30.7403V40.7753C17.6748 43.4678 20.7667 44.1719 21.8161 41.9047H31.4995ZM26.001 19.0226C21.8681 19.0226 18.1251 20.6981 15.417 23.4073C12.7078 26.1165 11.0323 29.8584 11.0323 33.9914C11.0323 38.1243 12.7078 41.8673 15.417 44.5754C18.1262 47.2846 21.8681 48.9601 26.001 48.9601C30.134 48.9601 33.877 47.2846 36.5851 44.5754C39.2943 41.8662 40.9698 38.1243 40.9698 33.9914C40.9698 29.8584 39.2943 26.1154 36.5851 23.4073C33.877 20.6981 30.134 19.0226 26.001 19.0226ZM35.5555 24.4369C33.1105 21.9918 29.7326 20.4786 26.001 20.4786C22.2695 20.4786 18.8916 21.9908 16.4455 24.4369C14.0005 26.8819 12.4873 30.2598 12.4873 33.9914C12.4873 37.7229 13.9994 41.1008 16.4455 43.5469C18.8906 45.9919 22.2695 47.5051 26.001 47.5051C29.7326 47.5051 33.1105 45.993 35.5555 43.5469C38.0006 41.1018 39.5138 37.7229 39.5138 33.9914C39.5138 30.2598 38.0016 26.8819 35.5555 24.4369ZM37.7052 22.2872C34.71 19.292 30.5718 17.4398 26.001 17.4398C21.4302 17.4398 17.2921 19.292 14.2969 22.2872C11.3017 25.2824 9.44944 29.4206 9.44944 33.9914C9.44944 38.5622 11.3017 42.7003 14.2969 45.6955C17.2921 48.6907 21.4302 50.543 26.001 50.543C30.5718 50.543 34.71 48.6907 37.7052 45.6955C40.7004 42.7003 42.5526 38.5622 42.5526 33.9914C42.5526 29.4206 40.7004 25.2824 37.7052 22.2872Z" fill="#BD8A09"/>
</svg>
