<svg width="58" height="58" viewBox="0 0 58 58" fill="none" xmlns="http://www.w3.org/2000/svg">
<g clip-path="url(#clip0_50_415)">
<path d="M49.3 53.1667C44.1767 53.1667 40.6 49.9864 40.6 45.4334V36.1195C37.4535 35.8827 33.6506 35.7667 29 35.7667C24.3494 35.7667 20.5475 35.8827 17.4 36.1195V45.4334C17.4 49.9864 13.8233 53.1667 8.7 53.1667C7.54328 53.2202 6.38811 53.0319 5.30833 52.6136C4.22855 52.1953 3.24792 51.5564 2.42912 50.7376C1.61032 49.9188 0.971366 48.9381 0.553096 47.8584C0.134826 46.7786 -0.0535546 45.6234 -5.19864e-06 44.4667V15.4667C-5.19864e-06 6.52793 10.1916 4.83336 29 4.83336C47.8084 4.83336 58 6.52793 58 15.4667V44.4667C58.0535 45.6234 57.8652 46.7786 57.4469 47.8584C57.0286 48.9381 56.3897 49.9188 55.5709 50.7376C54.7521 51.5564 53.7714 52.1953 52.6917 52.6136C51.6119 53.0319 50.4567 53.2202 49.3 53.1667ZM46.3159 17.1477C46.5812 16.99 46.8834 16.9051 47.192 16.9017C47.5006 16.8983 47.8046 16.9765 48.0733 17.1284C48.4524 17.3219 48.8746 17.4154 49.3 17.4C50.0036 17.4575 50.7017 17.2365 51.244 16.7845C51.7864 16.3326 52.1296 15.6858 52.2 14.9834C52.1296 14.2809 51.7864 13.6341 51.244 13.1822C50.7017 12.7302 50.0036 12.5092 49.3 12.5667C46.0288 12.5667 42.5333 13.8359 42.5333 17.4C42.5333 19.4687 44.1525 20.678 45.4333 21.3112V18.6905C45.4318 18.3785 45.5126 18.0716 45.6676 17.8007C45.8225 17.5298 46.0461 17.3046 46.3159 17.1477ZM47.3667 18.937V22.0004C48.0001 22.1515 48.6488 22.2296 49.3 22.2334C50.2933 22.2427 51.2786 22.0565 52.2 21.6853V18.4411C51.3452 19.0238 50.3344 19.3347 49.3 19.3334C48.6342 19.3454 47.974 19.2101 47.3667 18.937ZM1.93333 44.4667C1.88094 45.369 2.02007 46.2722 2.3416 47.1169C2.66312 47.9616 3.15975 48.7287 3.79886 49.3678C4.43797 50.0069 5.20508 50.5036 6.04979 50.8251C6.8945 51.1466 7.79768 51.2858 8.7 51.2334C12.7474 51.2334 15.4667 48.9027 15.4667 45.4334V21.6534C14.4419 22.5847 13.2189 23.2709 11.89 23.6602C10.8584 23.9893 9.78282 24.1601 8.7 24.1667C7.42106 24.208 6.14915 23.9618 4.97803 23.4462C3.80691 22.9306 2.76644 22.1587 1.93333 21.1874V44.4667ZM8.7 17.4C9.12606 17.4151 9.54893 17.3213 9.92863 17.1274C10.1969 16.9757 10.5005 16.8977 10.8086 16.9013C11.1168 16.9049 11.4185 16.9899 11.6831 17.1477C11.9539 17.3045 12.1783 17.5302 12.3335 17.8019C12.4887 18.0736 12.5691 18.3815 12.5667 18.6944V21.3112C13.8475 20.678 15.4667 19.4687 15.4667 17.4C15.4667 13.8359 11.9712 12.5667 8.7 12.5667C7.99637 12.5092 7.2983 12.7302 6.75596 13.1822C6.21362 13.6341 5.87035 14.2809 5.79999 14.9834C5.87035 15.6858 6.21362 16.3326 6.75596 16.7845C7.2983 17.2365 7.99637 17.4575 8.7 17.4ZM5.79999 18.4411V21.6853C6.72134 22.0565 7.70673 22.2427 8.7 22.2334C9.35122 22.2297 9.99988 22.1515 10.6333 22.0004V18.937C10.0258 19.2096 9.36573 19.3449 8.7 19.3334C7.66554 19.3347 6.65477 19.0238 5.79999 18.4411ZM29 6.7667C8.76283 6.7667 1.93333 8.962 1.93333 15.4667C1.90165 16.3817 2.05674 17.2936 2.38914 18.1467C2.72154 18.9998 3.22427 19.7762 3.86666 20.4286V14.9834C3.93536 13.7673 4.48196 12.6276 5.38732 11.8128C6.29268 10.998 7.48341 10.574 8.7 10.6334C13.9848 10.6334 17.4 13.2898 17.4 17.4V34.1814C20.5678 33.9484 24.3735 33.8334 29 33.8334C33.6265 33.8334 37.4322 33.9484 40.6 34.1814V17.4C40.6 13.2898 44.0143 10.6334 49.3 10.6334C50.5166 10.574 51.7073 10.998 52.6127 11.8128C53.518 12.6276 54.0646 13.7673 54.1333 14.9834V20.4286C54.7757 19.7762 55.2785 18.9998 55.6108 18.1467C55.9432 17.2936 56.0983 16.3817 56.0667 15.4667C56.0667 8.962 49.2372 6.7667 29 6.7667ZM56.0667 21.1874C55.2335 22.1587 54.1931 22.9306 53.022 23.4462C51.8508 23.9618 50.5789 24.208 49.3 24.1667C48.2171 24.1594 47.1415 23.988 46.11 23.6582C44.7815 23.2691 43.5585 22.5836 42.5333 21.6534V45.4334C42.5333 48.9027 45.2526 51.2334 49.3 51.2334C50.2023 51.2858 51.1055 51.1466 51.9502 50.8251C52.7949 50.5036 53.562 50.0069 54.2011 49.3678C54.8402 48.7287 55.3369 47.9616 55.6584 47.1169C55.9799 46.2722 56.1191 45.369 56.0667 44.4667V21.1874Z" fill="#BD8A09"/>
</g>
<defs>
<clipPath id="clip0_50_415">
<rect width="58" height="58" fill="white" transform="matrix(1 0 0 -1 0 58)"/>
</clipPath>
</defs>
</svg>
