<svg width="48" height="48" viewBox="0 0 48 48" fill="none" xmlns="http://www.w3.org/2000/svg">
<path d="M23.9997 48.0005C37.2339 48.0005 48 37.2344 48 24.0002C48 10.7661 37.2339 0.000488281 23.9997 0.000488281C10.7656 0.000488281 0 10.7671 0 24.0007C0 37.2344 10.7661 48.0005 23.9997 48.0005ZM23.9997 1.04448C36.6576 1.04448 46.956 11.3424 46.956 24.0007C46.956 36.6591 36.6576 46.9565 23.9997 46.9565C11.3419 46.9565 1.04399 36.6586 1.04399 24.0007C1.04399 11.3429 11.3419 1.04448 23.9997 1.04448Z" fill="black"/>
<g clip-path="url(#clip0_400_740)">
<path d="M26.4549 22.8921L34.1046 14H32.2919L25.6497 21.7209L20.3446 14H14.2258L22.2481 25.6753L14.2258 35H16.0386L23.0529 26.8465L28.6555 35H34.7743L26.4545 22.8921H26.4549ZM23.972 25.7782L23.1592 24.6156L16.6918 15.3647H19.4762L24.6955 22.8304L25.5083 23.993L32.2927 33.6974H29.5083L23.972 25.7786V25.7782Z" fill="black"/>
</g>
<defs>
<clipPath id="clip0_400_740">
<rect width="21" height="21" fill="white" transform="translate(14 14)"/>
</clipPath>
</defs>
</svg>
