<svg width="48" height="48" viewBox="0 0 48 48" fill="none" xmlns="http://www.w3.org/2000/svg">
<g clip-path="url(#clip0_902_546)">
<path d="M12.1341 34.3403C12.779 34.515 13.8538 34.6376 15.0617 34.7276C16.2835 34.8187 17.6844 34.8792 19.0065 34.9195C20.3294 34.9598 21.5774 34.9799 22.4944 34.9899C22.953 34.995 23.3291 34.9975 23.5906 34.9987C23.7214 34.9994 23.8236 34.9997 23.8931 34.9998L23.9725 35L23.9929 35L23.9982 35H23.9995H23.9999C23.9999 35 24 35 24 34.5C24 35 24.0001 35 24.0001 35H24.0005H24.0018L24.0071 35L24.0275 35L24.1071 34.9998C24.1768 34.9997 24.2792 34.9994 24.4103 34.9988C24.6724 34.9976 25.0493 34.9952 25.5088 34.9903C26.4277 34.9806 27.6778 34.9613 29.0021 34.9226C30.3256 34.8839 31.727 34.8257 32.9472 34.7381C34.1537 34.6515 35.2246 34.5336 35.8625 34.3657L35.8652 34.365C37.322 33.973 38.4693 32.8256 38.8617 31.3689L38.8625 31.3661C39.1858 30.1368 39.3414 28.2858 39.4185 26.7771C39.4574 26.0155 39.4769 25.3283 39.4866 24.8315C39.4915 24.583 39.4939 24.3819 39.4951 24.2426C39.4957 24.173 39.496 24.1188 39.4962 24.0819L39.4963 24.0396L39.4963 24.0286L39.4963 24.027L39.4963 24.0267L39.4963 24.0259V24.0257V24.0249V24.0247L39.4963 24.023L39.4964 24.0119L39.4965 23.9694C39.4965 23.9505 39.4965 23.9272 39.4964 23.8997C39.4964 23.873 39.4963 23.8422 39.4961 23.8077C39.4956 23.6677 39.494 23.4655 39.4901 23.2158C39.4824 22.7166 39.4653 22.0261 39.4279 21.261C39.3539 19.7469 39.1986 17.8875 38.8614 16.655C38.4689 15.1992 37.3223 14.052 35.8662 13.6598C35.2264 13.4849 34.1544 13.3624 32.9487 13.2724C31.728 13.1813 30.3263 13.1208 29.0027 13.0805C27.6782 13.0402 26.428 13.0201 25.5091 13.0101C25.0495 13.005 24.6726 13.0025 24.4104 13.0013C24.2793 13.0006 24.1769 13.0003 24.1071 13.0002L24.0276 13L24.0071 13L24.0018 13H24.0005H24.0001C24.0001 13 24 13 24 13.5C24 13 23.9999 13 23.9999 13H23.9995H23.9982L23.9929 13L23.9725 13L23.8929 13.0002C23.8232 13.0003 23.7208 13.0006 23.5897 13.0012C23.3276 13.0024 22.9507 13.0048 22.4912 13.0097C21.5723 13.0194 20.3222 13.0387 18.9979 13.0774C17.6744 13.1161 16.273 13.1743 15.0528 13.2619C13.8463 13.3485 12.7754 13.4664 12.1375 13.6343L12.1375 13.6342L12.1325 13.6356C10.7006 14.0284 9.52989 15.2008 9.13826 16.6561L9.13756 16.6587C8.81398 17.8881 8.65832 19.739 8.58117 21.2476C8.54223 22.0092 8.52277 22.6964 8.51304 23.1931C8.50818 23.4415 8.50574 23.6426 8.50452 23.7819C8.50391 23.8515 8.5036 23.9057 8.50345 23.9427L8.50332 23.985L8.5033 23.996L8.5033 23.9989V23.9997V23.9999C8.5033 24 8.5033 24 9.0033 24C8.5033 24 8.5033 24 8.5033 24.0001V24.0003V24.0011L8.5033 24.0041L8.50332 24.0151L8.50345 24.0576C8.5036 24.0947 8.50391 24.1491 8.50452 24.2191C8.50574 24.359 8.50818 24.5609 8.51304 24.8104C8.52277 25.309 8.54222 25.9985 8.58117 26.7617C8.65829 28.2729 8.81392 30.1248 9.1379 31.3425L9.1383 31.344C9.53062 32.8004 10.6775 33.948 12.1341 34.3403ZM12.1341 34.3403L12.2648 33.8577L12.1348 34.3405C12.1346 34.3404 12.1343 34.3403 12.1341 34.3403ZM21.5106 20.3684L27.8157 23.9998L21.5106 27.6311V20.3684ZM0.5 24C0.5 11.0233 11.0233 0.5 24 0.5C36.9767 0.5 47.5 11.0233 47.5 24C47.5 36.9767 36.9767 47.5 24 47.5C11.0233 47.5 0.5 36.9767 0.5 24Z" fill="#EFEFEF" stroke="#1E1E1E"/>
</g>
<defs>
<clipPath id="clip0_902_546">
<rect width="48" height="48" fill="white"/>
</clipPath>
</defs>
</svg>
